<svg width="157" height="36" viewBox="0 0 157 36" fill="none" xmlns="http://www.w3.org/2000/svg">
<path d="M30.6907 5.7402L21.7261 0L12.7632 5.7402L21.7261 11.4821L30.6907 5.7402Z" fill="white"/>
<path d="M12.7632 30.2578L21.7261 35.9997L30.6907 30.2578L21.7261 24.5176L12.7632 30.2578Z" fill="white"/>
<path d="M8.96459 16.3457L0 22.0859L8.96459 27.8261L17.9275 22.0859L8.96459 16.3457Z" fill="white"/>
<path d="M34.4895 16.3457L25.5266 22.0859L34.4895 27.8261L43.4541 22.0859L34.4895 16.3457Z" fill="white"/>
<path d="M61.0325 8.61104C59.6107 8.61104 58.4971 8.90733 57.6917 9.4999C56.8862 10.0925 56.4844 10.9132 56.4844 11.9621C56.4844 12.3861 56.5627 12.7829 56.7177 13.1507C56.8743 13.5185 57.1008 13.8369 57.4005 14.1059C57.7002 14.375 58.0714 14.5827 58.5141 14.7326C58.9568 14.8824 59.4711 14.9573 60.0585 14.9573C60.9065 14.9573 61.6813 14.7768 62.3794 14.4142C63.0776 14.0532 63.6276 13.5713 64.026 12.9736V14.7513H65.9723V8.49866C65.9723 7.88735 65.8719 7.33224 65.6726 6.83333C65.4734 6.33441 65.1788 5.90701 64.7923 5.55112C64.4058 5.19524 63.9273 4.92109 63.3602 4.72697C62.7915 4.53286 62.1462 4.4375 61.4225 4.4375C60.3361 4.4375 59.403 4.65546 58.6248 5.09307C57.8449 5.53069 57.2047 6.07899 56.7057 6.73967L58.5022 7.78859C58.79 7.28967 59.1765 6.89292 59.6635 6.60004C60.1505 6.30716 60.7311 6.16072 61.4037 6.16072C62.3028 6.16072 62.9635 6.37357 63.3875 6.79757C63.8115 7.22156 64.0243 7.77156 64.0243 8.44417V8.61274H61.0291L61.0325 8.61104ZM64.0277 11.0631C63.866 11.4002 63.6565 11.6999 63.4011 11.9621C63.1457 12.2244 62.8613 12.4457 62.5497 12.6262C62.2381 12.8067 61.9078 12.948 61.557 13.0468C61.2079 13.1473 60.852 13.1967 60.4893 13.1967C59.815 13.1967 59.3229 13.0724 59.0113 12.822C58.6997 12.5734 58.5431 12.2295 58.5431 11.7919C58.5431 11.2929 58.7457 10.9064 59.1509 10.6306C59.5562 10.3564 60.2271 10.2185 61.1636 10.2185H64.0277V11.0614V11.0631Z" fill="white"/>
<path d="M74.9216 6.98147C75.3575 7.49401 75.5771 8.18023 75.5771 9.04014V14.7496H77.6171V8.892C77.6171 8.20577 77.52 7.58426 77.3276 7.02915C77.1335 6.47404 76.8593 6.00577 76.5035 5.62605C76.1476 5.24633 75.71 4.95174 75.1923 4.74571C74.6747 4.53967 74.0974 4.4375 73.4606 4.4375C72.7488 4.4375 72.1222 4.58394 71.579 4.87682C71.0358 5.1697 70.5897 5.55964 70.2406 6.04664V4.47326L68.2568 5.32465V14.7513H70.278V9.17296C70.278 8.72342 70.3462 8.31475 70.4841 7.94695C70.622 7.57915 70.811 7.26754 71.0545 7.01042C71.298 6.755 71.5841 6.55747 71.9161 6.42125C72.2465 6.28332 72.6058 6.21521 72.9923 6.21521C73.8403 6.21521 74.4839 6.47063 74.9199 6.98317L74.9216 6.98147Z" fill="white"/>
<path d="M87.8185 11.0066C87.5681 11.5941 87.1918 12.0828 86.6861 12.4761C86.1804 12.8695 85.5657 13.0653 84.842 13.0653C84.3669 13.0653 83.9276 12.9784 83.5223 12.8031C83.1171 12.6277 82.7646 12.3876 82.4649 12.0828C82.1652 11.7763 81.9319 11.4187 81.7633 11.0066C81.5948 10.5945 81.5113 10.1586 81.5113 9.69547C81.5113 9.23231 81.5948 8.79639 81.7633 8.38602C81.9319 7.97395 82.1635 7.61636 82.4564 7.30986C82.7493 7.00506 83.0949 6.76496 83.4951 6.58958C83.8952 6.41419 84.3312 6.32735 84.8062 6.32735C85.4925 6.32735 86.0952 6.50273 86.6129 6.85181C87.1305 7.20088 87.5205 7.68788 87.7827 8.3111L89.5979 7.52441C89.4106 7.07487 89.1586 6.66109 88.8401 6.27967C88.5217 5.89995 88.1573 5.57131 87.7452 5.29716C87.3332 5.02301 86.8802 4.81016 86.3881 4.66032C85.8943 4.51047 85.3682 4.43555 84.8062 4.43555C84.0689 4.43555 83.381 4.57007 82.7373 4.83741C82.0954 5.10645 81.5369 5.47765 81.0618 5.95103C80.5867 6.42611 80.2138 6.98122 79.938 7.61636C79.6638 8.2532 79.5259 8.94624 79.5259 9.69376C79.5259 10.4413 79.6604 11.1156 79.9277 11.7524C80.1968 12.3893 80.568 12.9444 81.0414 13.4178C81.5147 13.8928 82.0767 14.2658 82.7254 14.5416C83.3742 14.8158 84.0723 14.9537 84.8216 14.9537C85.9948 14.9537 86.9926 14.6574 87.8168 14.0648C88.6409 13.4723 89.2522 12.7077 89.6507 11.7712L87.8168 11.0032L87.8185 11.0066Z" fill="white"/>
<path d="M98.104 6.98144C98.5348 7.49398 98.7493 8.18021 98.7493 9.04012V14.7496H100.808V8.89197C100.808 8.20575 100.711 7.58423 100.519 7.02912C100.324 6.47401 100.05 6.00574 99.6944 5.62602C99.3385 5.2463 98.9009 4.95172 98.3832 4.74568C97.8656 4.53964 97.2883 4.43747 96.6515 4.43747C95.9653 4.43747 95.3506 4.5771 94.8074 4.85806C94.2642 5.13902 93.8129 5.51704 93.4502 5.99042V0L91.4478 0.858207V14.7496H93.469V9.17293C93.469 8.7234 93.5371 8.31473 93.675 7.94693C93.8129 7.57912 94.002 7.26751 94.2454 7.01039C94.4889 6.75497 94.775 6.55745 95.1071 6.42122C95.4374 6.2833 95.7899 6.21519 96.1645 6.21519C97.0261 6.21519 97.6715 6.47061 98.1023 6.98315L98.104 6.98144Z" fill="white"/>
<path d="M111.702 5.97146C111.227 5.49809 110.671 5.12347 110.027 4.84762C109.383 4.57347 108.7 4.43555 107.977 4.43555C107.253 4.43555 106.555 4.57347 105.918 4.84762C105.281 5.12177 104.726 5.49638 104.253 5.97146C103.778 6.44654 103.405 7.00335 103.129 7.64701C102.855 8.29066 102.717 8.97348 102.717 9.69717C102.717 10.4209 102.855 11.119 103.129 11.7558C103.403 12.3927 103.778 12.9478 104.253 13.4212C104.726 13.8962 105.283 14.2692 105.918 14.545C106.555 14.8192 107.241 14.9571 107.977 14.9571C108.712 14.9571 109.383 14.8192 110.027 14.545C110.669 14.2709 111.227 13.8962 111.702 13.4212C112.176 12.9478 112.55 12.391 112.826 11.7558C113.1 11.119 113.238 10.4328 113.238 9.69717C113.238 8.96156 113.1 8.29066 112.826 7.64701C112.552 7.00506 112.177 6.44654 111.702 5.97146V5.97146ZM110.982 11.0168C110.814 11.4221 110.582 11.778 110.289 12.0845C109.996 12.391 109.652 12.6311 109.259 12.8048C108.866 12.9801 108.438 13.067 107.977 13.067C107.515 13.067 107.088 12.9801 106.695 12.8048C106.301 12.6294 105.957 12.3893 105.664 12.0845C105.371 11.778 105.143 11.4238 104.982 11.0168C104.82 10.6116 104.738 10.1722 104.738 9.69717C104.738 9.22209 104.82 8.79809 104.982 8.38772C105.143 7.97565 105.371 7.61806 105.664 7.31156C105.957 7.00676 106.301 6.76667 106.695 6.59128C107.088 6.41589 107.515 6.32905 107.977 6.32905C108.438 6.32905 108.85 6.41589 109.249 6.59128C109.649 6.76667 109.995 7.00676 110.287 7.31156C110.58 7.61806 110.812 7.97565 110.98 8.38772C111.149 8.7998 111.232 9.23571 111.232 9.69717C111.232 10.1586 111.149 10.6116 110.98 11.0168H110.982Z" fill="white"/>
<path d="M119.901 4.49309C119.252 4.49309 118.684 4.65145 118.198 4.96987C117.711 5.28829 117.362 5.76507 117.15 6.40192V4.47266L115.166 5.32405V14.7507H117.187V9.06168C117.187 8.15068 117.4 7.50192 117.824 7.11539C118.248 6.72885 118.822 6.53474 119.545 6.53474C120.094 6.53474 120.519 6.6352 120.817 6.83443L121.604 4.88814C121.405 4.76383 121.158 4.66677 120.865 4.59866C120.572 4.53055 120.25 4.4965 119.901 4.4965V4.49309Z" fill="white"/>
<path d="M130.643 5.54917C130.256 5.19329 129.778 4.91914 129.211 4.72502C128.642 4.5309 127.997 4.43555 127.273 4.43555C126.187 4.43555 125.254 4.6535 124.475 5.09112C123.695 5.52874 123.055 6.07704 122.556 6.73772L124.353 7.78664C124.639 7.28772 125.027 6.89097 125.512 6.59809C125.999 6.30521 126.58 6.15877 127.253 6.15877C128.152 6.15877 128.812 6.37162 129.236 6.79561C129.66 7.21961 129.873 7.76961 129.873 8.44221V8.61079H126.878C125.456 8.61079 124.341 8.90707 123.537 9.49964C122.732 10.0922 122.33 10.913 122.33 11.9619C122.33 12.3859 122.408 12.7826 122.563 13.1504C122.72 13.5182 122.946 13.8366 123.246 14.1057C123.546 14.3747 123.917 14.5825 124.36 14.7323C124.802 14.8822 125.317 14.9571 125.904 14.9571C126.752 14.9571 127.527 14.7766 128.225 14.4139C128.923 14.0529 129.473 13.571 129.872 12.9733V14.751H131.818V8.4984C131.818 7.8871 131.717 7.33199 131.518 6.83307C131.319 6.33416 131.024 5.90676 130.638 5.55087L130.643 5.54917ZM129.875 11.0611C129.713 11.3983 129.504 11.6979 129.248 11.9602C128.993 12.2224 128.708 12.4438 128.397 12.6243C128.085 12.8048 127.753 12.9461 127.404 13.0449C127.055 13.1453 126.699 13.1947 126.337 13.1947C125.662 13.1947 125.17 13.0704 124.858 12.8201C124.547 12.5715 124.39 12.2275 124.39 11.7899C124.39 11.291 124.593 10.9044 124.998 10.6286C125.403 10.3544 126.074 10.2165 127.011 10.2165H129.875V11.0594V11.0611Z" fill="white"/>
<path d="M142.269 6.10283C141.882 5.57837 141.38 5.1697 140.762 4.87682C140.144 4.58394 139.498 4.4375 138.824 4.4375C138.15 4.4375 137.504 4.5618 136.886 4.81211C136.268 5.06242 135.725 5.41831 135.258 5.87976C134.79 6.34122 134.419 6.89463 134.145 7.53658C133.871 8.18024 133.733 8.90052 133.733 9.69913C133.733 10.4977 133.872 11.2027 134.153 11.8515C134.434 12.5002 134.809 13.0553 135.277 13.5168C135.745 13.9782 136.285 14.3341 136.896 14.5844C137.508 14.8347 138.145 14.9591 138.805 14.9591C139.466 14.9591 140.147 14.8058 140.77 14.501C141.394 14.1945 141.899 13.7739 142.286 13.2375V14.0242C142.286 14.4857 142.207 14.9063 142.053 15.2877C141.896 15.6674 141.678 15.9961 141.397 16.2702C141.116 16.5444 140.779 16.7572 140.385 16.907C139.992 17.0569 139.553 17.1318 139.066 17.1318C138.242 17.1318 137.574 17.0041 137.063 16.7487C136.551 16.4933 136.096 16.0897 135.698 15.5414L134.07 16.8713C134.618 17.5575 135.289 18.082 136.083 18.443C136.874 18.804 137.882 18.9862 139.105 18.9862C139.829 18.9862 140.505 18.8653 141.136 18.6218C141.766 18.3783 142.316 18.0343 142.783 17.5916C143.251 17.1488 143.619 16.6176 143.888 16.0012C144.157 15.383 144.29 14.7002 144.29 13.951V4.64184H142.269V6.10113V6.10283ZM142.129 11.0171C141.961 11.436 141.729 11.797 141.436 12.1035C141.143 12.41 140.794 12.6535 140.387 12.834C139.982 13.0145 139.541 13.1047 139.068 13.1047C138.594 13.1047 138.153 13.0179 137.748 12.8425C137.343 12.6671 136.99 12.4253 136.69 12.112C136.391 11.8004 136.157 11.436 135.989 11.0171C135.82 10.5999 135.737 10.1538 135.737 9.67869C135.737 9.20361 135.82 8.75919 135.989 8.3403C136.157 7.92312 136.391 7.56042 136.69 7.25392C136.99 6.94912 137.343 6.70902 137.748 6.53364C138.153 6.35825 138.592 6.27141 139.068 6.27141C139.543 6.27141 139.982 6.36165 140.387 6.54215C140.792 6.72265 141.142 6.96615 141.436 7.27265C141.729 7.57915 141.961 7.94014 142.129 8.35903C142.298 8.77792 142.381 9.21724 142.381 9.67869C142.381 10.1402 142.298 10.5999 142.129 11.0171Z" fill="white"/>
<path d="M156.681 9.60181C156.681 8.85258 156.55 8.16295 156.288 7.53292C156.026 6.90289 155.663 6.35629 155.202 5.89484C154.74 5.43338 154.194 5.07409 153.564 4.81867C152.934 4.56326 152.244 4.43555 151.495 4.43555C150.746 4.43555 150.053 4.57347 149.417 4.84762C148.781 5.12177 148.225 5.49638 147.752 5.97146C147.277 6.44654 146.906 7.00335 146.638 7.64701C146.369 8.29066 146.237 8.9854 146.237 9.73463C146.237 10.4839 146.364 11.1565 146.62 11.7933C146.875 12.4301 147.24 12.9818 147.715 13.4501C148.188 13.9184 148.753 14.2862 149.409 14.5552C150.064 14.8226 150.797 14.9571 151.609 14.9571C152.707 14.9571 153.63 14.7357 154.379 14.293C155.129 13.8503 155.745 13.2611 156.232 12.5238L154.567 11.5311C154.267 12.0181 153.877 12.4114 153.397 12.7094C152.917 13.0091 152.321 13.1589 151.609 13.1589C150.672 13.1589 149.906 12.912 149.307 12.4199C148.707 11.9278 148.333 11.2688 148.183 10.4447H156.681V9.60181V9.60181ZM148.258 8.72147C148.457 7.98586 148.844 7.38308 149.419 6.91481C149.993 6.44654 150.686 6.21326 151.496 6.21326C152.307 6.21326 153.027 6.43122 153.584 6.86883C154.139 7.30645 154.492 7.92286 154.642 8.72147H148.259H148.258Z" fill="white"/>
<path d="M63.9902 23.0622C63.6037 22.5633 63.1013 22.17 62.4832 21.8822C61.8651 21.5961 61.2198 21.4514 60.5454 21.4514C59.8711 21.4514 59.2258 21.5757 58.6077 21.826C57.9896 22.0763 57.4464 22.4322 56.9798 22.8937C56.5115 23.3551 56.1403 23.9085 55.8662 24.5505C55.592 25.1941 55.4541 25.9144 55.4541 26.713C55.4541 27.5116 55.5937 28.2166 55.8747 28.8654C56.1557 29.5141 56.5303 30.0692 56.9985 30.5307C57.4668 30.9921 58.0066 31.348 58.6179 31.5983C59.2292 31.8486 59.866 31.973 60.5267 31.973C61.1874 31.973 61.8464 31.8231 62.4645 31.5234C63.0826 31.2237 63.59 30.8116 63.9902 30.2872V31.7652H65.9739V17.0156L63.9902 17.867V23.0622V23.0622ZM63.7654 28.0327C63.5968 28.4516 63.3653 28.8126 63.0724 29.1191C62.7795 29.4256 62.4304 29.6691 62.0235 29.8496C61.6182 30.0301 61.1772 30.1203 60.7038 30.1203C60.2304 30.1203 59.7894 30.0335 59.3841 29.8581C58.9789 29.6827 58.6264 29.4409 58.3267 29.1276C58.027 28.816 57.7937 28.4516 57.6252 28.0327C57.4566 27.6155 57.3731 27.1694 57.3731 26.6943C57.3731 26.2192 57.4566 25.7748 57.6252 25.3559C57.7937 24.9387 58.027 24.576 58.3267 24.2695C58.6264 23.9647 58.9789 23.7246 59.3841 23.5492C59.7894 23.3739 60.2287 23.287 60.7038 23.287C61.1789 23.287 61.6182 23.3773 62.0235 23.5578C62.4287 23.7382 62.7778 23.9817 63.0724 24.2882C63.3653 24.5948 63.5968 24.9557 63.7654 25.3746C63.934 25.7935 64.0174 26.2328 64.0174 26.6943C64.0174 27.1558 63.934 27.6155 63.7654 28.0327Z" fill="white"/>
<path d="M69.2534 17.3633C68.8856 17.3633 68.5808 17.4859 68.3407 17.7311C68.1006 17.9763 67.9814 18.2828 67.9814 18.6523C67.9814 19.0218 68.0989 19.3283 68.3339 19.5735C68.5689 19.8187 68.8754 19.9413 69.2551 19.9413C69.6349 19.9413 69.9448 19.8187 70.1849 19.5735C70.425 19.3283 70.5441 19.0218 70.5441 18.6523C70.5441 18.2828 70.4232 17.978 70.1849 17.7311C69.9448 17.4859 69.6349 17.3633 69.2551 17.3633H69.2534Z" fill="white"/>
<path d="M86.0589 17.3633C85.6911 17.3633 85.3862 17.4859 85.1462 17.7311C84.9061 17.9763 84.7869 18.2828 84.7869 18.6523C84.7869 19.0218 84.9044 19.3283 85.1393 19.5735C85.3743 19.8187 85.6808 19.9413 86.0605 19.9413C86.4403 19.9413 86.7502 19.8187 86.9903 19.5735C87.2304 19.3283 87.3496 19.0218 87.3496 18.6523C87.3496 18.2828 87.2287 17.978 86.9903 17.7311C86.7502 17.4859 86.4403 17.3633 86.0605 17.3633H86.0589Z" fill="white"/>
<path d="M70.2809 21.6582H68.241V31.766H70.2809V21.6582Z" fill="white"/>
<path d="M80.7248 23.1185C80.3383 22.594 79.836 22.1853 79.2178 21.8924C78.5997 21.5996 77.9544 21.4531 77.2801 21.4531C76.6058 21.4531 75.9604 21.5774 75.3423 21.8277C74.7242 22.0781 74.181 22.4339 73.7144 22.8954C73.2462 23.3568 72.8749 23.9103 72.6008 24.5522C72.3266 25.1959 72.1887 25.9161 72.1887 26.7147C72.1887 27.5134 72.3283 28.2183 72.6093 28.8671C72.8903 29.5158 73.2649 30.0709 73.7332 30.5324C74.2014 30.9939 74.7412 31.3497 75.3525 31.6001C75.9638 31.8504 76.6006 31.9747 77.2613 31.9747C77.922 31.9747 78.6031 31.8214 79.2264 31.5166C79.8496 31.2118 80.3553 30.7895 80.7418 30.2531V31.0398C80.7418 31.5013 80.6635 31.9219 80.5086 32.3033C80.3519 32.683 80.1339 33.0117 79.853 33.2858C79.572 33.56 79.2349 33.7728 78.8415 33.9227C78.4482 34.0725 78.0089 34.1474 77.5219 34.1474C76.6977 34.1474 76.0302 34.0197 75.5194 33.7643C75.0068 33.5089 74.5522 33.1053 74.1537 32.557L72.5259 33.8852C73.0742 34.5714 73.7451 35.0959 74.5386 35.4569C75.3304 35.8179 76.3384 36.0001 77.561 36.0001C78.2847 36.0001 78.9607 35.8792 79.5925 35.6357C80.2225 35.3922 80.7725 35.0482 81.2391 34.6055C81.7073 34.1628 82.0751 33.6315 82.3425 33.0151C82.6115 32.397 82.7443 31.7141 82.7443 30.9649V21.6626H80.7231V23.1219L80.7248 23.1185ZM80.5852 28.0327C80.4166 28.4516 80.185 28.8126 79.8921 29.1191C79.5993 29.4256 79.2502 29.6691 78.8432 29.8496C78.438 30.0301 77.9969 30.1203 77.5236 30.1203C77.0502 30.1203 76.6092 30.0335 76.2039 29.8581C75.7986 29.6827 75.4462 29.4409 75.1465 29.1276C74.8468 28.816 74.6135 28.4516 74.4449 28.0327C74.2763 27.6155 74.1929 27.1694 74.1929 26.6943C74.1929 26.2192 74.2763 25.7748 74.4449 25.3559C74.6135 24.9387 74.8468 24.576 75.1465 24.2695C75.4462 23.9647 75.7986 23.7246 76.2039 23.5493C76.6092 23.3739 77.0485 23.287 77.5236 23.287C77.9986 23.287 78.438 23.3773 78.8432 23.5578C79.2485 23.7383 79.5976 23.9818 79.8921 24.2883C80.185 24.5948 80.4166 24.9558 80.5852 25.3747C80.7538 25.7935 80.8372 26.2329 80.8372 26.6943C80.8372 27.1558 80.7538 27.6155 80.5852 28.0327Z" fill="white"/>
<path d="M87.0509 21.6582H85.011V31.766H87.0509V21.6582Z" fill="white"/>
<path d="M93.998 30.0442C93.5979 30.0442 93.2777 29.9199 93.0342 29.6696C92.7907 29.4193 92.6698 29.014 92.6698 28.4521V23.4732H95.4965V21.658H92.6698V18.1758L90.6861 19.0272V21.658H88.6836V23.4732H90.6861V28.4709C90.6861 29.719 90.9602 30.6113 91.5102 31.1476C92.0585 31.684 92.8384 31.9531 93.8499 31.9531C94.2739 31.9531 94.6638 31.9003 95.0197 31.7947C95.3756 31.6891 95.6957 31.5359 95.9835 31.3367L95.0282 29.6526C94.7285 29.9148 94.3862 30.0459 93.998 30.0459V30.0442Z" fill="white"/>
<path d="M105.225 22.5648C104.838 22.2089 104.36 21.9348 103.793 21.7406C103.224 21.5465 102.579 21.4512 101.855 21.4512C100.768 21.4512 99.8353 21.6691 99.0571 22.1067C98.2773 22.5444 97.637 23.0927 97.1381 23.7533L98.9345 24.8023C99.2223 24.3033 99.6088 23.9066 100.096 23.6137C100.583 23.3208 101.163 23.1744 101.836 23.1744C102.735 23.1744 103.396 23.3872 103.82 23.8112C104.244 24.2352 104.457 24.7852 104.457 25.4578V25.6264H101.461C100.04 25.6264 98.926 25.9227 98.1206 26.5153C97.3152 27.1078 96.9133 27.9286 96.9133 28.9775C96.9133 29.4015 96.9917 29.7982 97.1466 30.166C97.3033 30.5338 97.5297 30.8523 97.8294 31.1213C98.1291 31.3904 98.5003 31.5981 98.9431 31.7479C99.3858 31.8978 99.9 31.9727 100.487 31.9727C101.335 31.9727 102.11 31.7922 102.808 31.4295C103.507 31.0685 104.057 30.5866 104.455 29.989V31.7667H106.401V25.514C106.401 24.9027 106.301 24.3476 106.102 23.8487C105.902 23.3498 105.608 22.9224 105.221 22.5665L105.225 22.5648ZM104.457 28.0767C104.295 28.4139 104.085 28.7136 103.83 28.9758C103.575 29.238 103.29 29.4594 102.979 29.6399C102.667 29.8204 102.335 29.9617 101.986 30.0605C101.637 30.1609 101.281 30.2103 100.918 30.2103C100.244 30.2103 99.7519 30.086 99.4403 29.8357C99.1287 29.5871 98.972 29.2431 98.972 28.8055C98.972 28.3066 99.1746 27.9201 99.5799 27.6442C99.9852 27.3701 100.656 27.2321 101.593 27.2321H104.457V28.075V28.0767Z" fill="white"/>
<path d="M108.67 31.7652H110.71V17.0156L108.67 17.8909V31.7652Z" fill="white"/>
</svg>
