<svg width="32" height="32" viewBox="0 0 32 32" fill="none" xmlns="http://www.w3.org/2000/svg">
  <rect width="32" height="32" rx="6" fill="#ffffff"/>
  <g transform="translate(6, 7) scale(0.95)">
    <path
      d="M20.3494 14.1918L17.0269 17.7543C16.955 17.8317 16.868 17.8935 16.7712 17.9357C16.6744 17.978 16.57 17.9999 16.4644 18H0.714371C0.639253 17.9999 0.565775 17.978 0.502936 17.9368C0.4401 17.8956 0.39063 17.8371 0.360583 17.7682C0.330536 17.6994 0.321217 17.6232 0.333768 17.5492C0.34632 17.4751 0.380193 17.4063 0.431246 17.3512L3.75 13.7887C3.82186 13.7113 3.90888 13.6496 4.00567 13.6073C4.10244 13.5651 4.2069 13.5432 4.3125 13.5431H20.0625C20.1382 13.5415 20.2129 13.5624 20.2768 13.6031C20.3407 13.6439 20.3914 13.7026 20.4219 13.7719C20.4527 13.8413 20.4621 13.9182 20.4491 13.9929C20.4362 14.0676 20.4015 14.1368 20.3494 14.1918ZM17.0269 7.0162C16.9547 6.93918 16.8676 6.87768 16.7709 6.83543C16.6742 6.79321 16.5699 6.77114 16.4644 6.77059H0.714371C0.639253 6.77063 0.565775 6.79257 0.502936 6.83374C0.4401 6.8749 0.39063 6.93349 0.360583 7.00234C0.330536 7.07119 0.321217 7.1473 0.333768 7.22136C0.34632 7.29543 0.380193 7.36424 0.431246 7.41934L3.75 10.9837C3.82213 11.0607 3.90922 11.1222 4.00593 11.1645C4.10265 11.2067 4.20697 11.2288 4.3125 11.2293H20.0625C20.1375 11.2289 20.2106 11.2067 20.2732 11.1654C20.3359 11.1241 20.385 11.0655 20.4148 10.9967C20.4446 10.928 20.4538 10.852 20.4411 10.7781C20.4285 10.7042 20.3947 10.6356 20.3437 10.5806L17.0269 7.0162ZM0.714371 4.45683H16.4644C16.57 4.45673 16.6744 4.43485 16.7712 4.39259C16.868 4.35034 16.955 4.28858 17.0269 4.2112L20.3494 0.64871C20.4015 0.593683 20.4362 0.524456 20.4491 0.449739C20.4621 0.375022 20.4527 0.298153 20.4219 0.228804C20.3914 0.159455 20.3407 0.100726 20.2768 0.060006C20.2129 0.0192859 20.1382 -0.00160574 20.0625 -4.00949e-05H4.3125C4.2069 7.10627e-05 4.10244 0.0219383 4.00567 0.0641982C3.90888 0.106458 3.82186 0.168204 3.75 0.245585L0.431246 3.80808C0.380193 3.86318 0.34632 3.93199 0.333768 4.00606C0.321217 4.08012 0.330536 4.15623 0.360583 4.22508C0.39063 4.29393 0.4401 4.35252 0.502936 4.39368C0.565775 4.43485 0.639253 4.45679 0.714371 4.45683Z"
      fill="#2D2D2D"
    />
  </g>
</svg>
