<svg version="1.1" id="Layer_1" xmlns="http://www.w3.org/2000/svg" xmlns:xlink="http://www.w3.org/1999/xlink" x="0px" y="0px"
	 width="100%" viewBox="0 0 200 200" enable-background="new 0 0 200 200" xml:space="preserve">
<path fill="#FFFDFC" opacity="1.000000" stroke="none" 
	d="
M124.000000,201.000000 
	C82.692200,201.000000 41.884399,201.000000 1.038300,201.000000 
	C1.038300,134.400574 1.038300,67.801117 1.038300,1.100832 
	C67.557625,1.100832 134.115448,1.100832 200.836639,1.100832 
	C200.836639,67.666344 200.836639,134.333130 200.836639,201.000000 
	C175.468063,201.000000 149.984039,201.000000 124.000000,201.000000 
M124.097084,71.981422 
	C124.097084,71.981422 124.174973,71.754799 123.911469,71.330627 
	C123.629501,71.090141 123.314888,71.034637 122.483566,70.900719 
	C122.128059,70.811813 121.772545,70.722908 121.108910,70.093918 
	C120.362305,69.886902 119.615707,69.679886 118.316048,69.169952 
	C117.905510,69.088089 117.494965,69.006226 116.589180,68.410507 
	C114.722626,68.078491 112.856071,67.746468 110.168983,67.161118 
	C108.454590,67.073135 106.740196,66.985161 104.418243,66.539841 
	C102.623230,66.742348 100.828224,66.944862 98.351837,67.141670 
	C97.908226,67.232925 97.464615,67.324181 96.396988,67.174591 
	C95.597755,67.459198 94.798515,67.743805 93.298126,68.148849 
	C92.865379,68.340508 92.432632,68.532166 91.632904,68.501709 
	C91.306458,68.516045 91.086220,68.676483 90.264717,69.098976 
	C79.036407,73.322739 72.520134,81.417709 69.995117,93.632057 
	C80.624939,95.730881 89.868500,99.963150 97.448341,107.411537 
	C105.177582,115.006714 109.554375,124.365318 111.781517,135.244934 
	C121.057350,133.827499 128.090729,128.633163 136.017029,122.665031 
	C136.017029,126.453529 135.672195,128.794052 136.079041,130.995667 
	C137.536591,138.883362 132.873062,142.478195 126.671371,145.282913 
	C116.631996,149.823196 106.162315,151.064682 95.416069,149.100388 
	C77.823326,145.884659 64.876007,136.449051 57.686749,119.772163 
	C55.736416,115.247978 56.437248,114.225510 61.357155,113.806976 
	C67.352730,113.296944 71.964813,114.312660 75.307449,120.618942 
	C79.368675,128.280884 86.542549,132.827179 95.422554,134.739395 
	C94.627182,124.242516 87.520805,114.423645 77.840515,110.667641 
	C62.263630,104.623749 47.771584,107.711136 34.083996,116.459114 
	C30.904396,118.491249 30.401398,121.047867 31.677912,124.597603 
	C39.806568,147.201767 55.088741,162.602188 77.716858,170.614807 
	C85.385460,173.330261 85.475838,173.192154 89.850128,166.035248 
	C91.411095,163.481323 92.628273,160.710831 94.272141,158.216995 
	C94.987602,157.131607 96.364761,155.805908 97.472824,155.776566 
	C101.591286,155.667496 105.722816,156.051819 111.228348,156.317383 
	C108.370544,162.595596 105.817520,168.204239 103.288727,173.759659 
	C138.343185,177.008026 180.754044,132.690643 172.347809,101.036598 
	C158.265076,109.049583 143.346878,112.155479 127.722771,107.061150 
	C111.772766,101.860550 101.727646,90.650284 96.634003,74.743797 
	C105.597664,70.727493 111.395103,72.524040 115.874260,80.040329 
	C120.761673,88.241676 127.816612,93.450356 137.389450,94.689384 
	C147.787399,96.035202 157.572357,94.033463 166.792725,88.924545 
	C170.876740,86.661644 171.786453,83.944984 170.284698,79.511200 
	C163.821503,60.429176 151.795471,46.167870 133.921906,36.950600 
	C120.447784,30.002090 115.497375,32.369976 111.534111,47.236717 
	C111.405518,47.719090 111.300919,48.208111 111.194077,48.695992 
	C110.632698,51.259315 111.466904,52.255825 114.214043,53.154091 
	C120.960800,55.360172 127.459221,58.325733 134.194336,61.450008 
	C134.399155,61.761063 134.682114,61.870968 135.616196,62.433815 
	C135.878693,66.269302 136.141205,70.104797 136.134933,74.627151 
	C136.216492,75.104378 136.298050,75.581596 136.229752,76.737328 
	C136.164474,77.195976 136.099213,77.654633 135.486710,78.126747 
	C135.311157,78.176468 135.135590,78.226196 134.521255,77.929626 
	C134.185684,77.769592 133.850113,77.609558 133.239609,77.012917 
	C132.937439,76.860641 132.635269,76.708366 131.879150,76.128746 
	C130.646118,75.366585 129.413086,74.604424 127.926010,73.397835 
	C127.607277,73.317413 127.288544,73.236992 126.503952,72.851845 
	C126.165489,72.700897 125.827019,72.549950 125.169876,72.001015 
	C124.848045,71.923004 124.526222,71.844994 124.097084,71.981422 
M42.816410,57.328892 
	C32.453308,71.223145 27.712238,86.820755 27.940975,103.121346 
	C36.227051,100.038284 44.248142,97.159157 52.157345,93.999916 
	C53.374496,93.513733 54.601215,91.871895 54.938744,90.540268 
	C59.921555,70.881760 72.072044,58.339546 91.641495,52.924244 
	C92.881851,52.581013 94.504654,51.589867 94.890900,50.518490 
	C97.449661,43.421013 99.719040,36.219208 102.191963,28.719774 
	C78.572121,28.484529 58.537403,37.455963 42.816410,57.328892 
z"/>
<path fill="#EE5A2C" opacity="1.000000" stroke="none" 
	d="
M117.084427,68.924362 
	C117.494965,69.006226 117.905510,69.088089 118.708061,69.620644 
	C119.872398,70.258888 120.644714,70.446449 121.417038,70.634003 
	C121.772545,70.722908 122.128059,70.811813 122.852509,71.250565 
	C123.539291,71.651871 123.857132,71.703339 124.174973,71.754799 
	C124.174973,71.754799 124.097084,71.981422 124.255203,72.145889 
	C124.771736,72.339897 125.130142,72.369446 125.488556,72.398994 
	C125.827019,72.549950 126.165489,72.700897 126.860420,73.230690 
	C127.537941,73.687111 127.859001,73.764687 128.180054,73.842262 
	C129.413086,74.604424 130.646118,75.366585 132.142273,76.652946 
	C132.775116,77.267937 133.144821,77.358727 133.514542,77.449524 
	C133.850113,77.609558 134.185684,77.769592 134.846741,78.286751 
	C135.459457,78.467010 135.746704,78.290146 136.033936,78.113281 
	C136.099213,77.654633 136.164474,77.195976 136.490387,76.230194 
	C136.635254,75.128799 136.519470,74.534546 136.403702,73.940285 
	C136.141205,70.104797 135.878693,66.269302 135.244141,61.893566 
	C134.662888,61.092724 134.391373,60.970215 134.057541,60.985790 
	C127.459221,58.325733 120.960800,55.360172 114.214043,53.154091 
	C111.466904,52.255825 110.632698,51.259315 111.194077,48.695992 
	C111.300919,48.208111 111.405518,47.719090 111.534111,47.236717 
	C115.497375,32.369976 120.447784,30.002090 133.921906,36.950600 
	C151.795471,46.167870 163.821503,60.429176 170.284698,79.511200 
	C171.786453,83.944984 170.876740,86.661644 166.792725,88.924545 
	C157.572357,94.033463 147.787399,96.035202 137.389450,94.689384 
	C127.816612,93.450356 120.761673,88.241676 115.874260,80.040329 
	C111.395103,72.524040 105.597664,70.727493 96.634003,74.743797 
	C101.727646,90.650284 111.772766,101.860550 127.722771,107.061150 
	C143.346878,112.155479 158.265076,109.049583 172.347809,101.036598 
	C180.754044,132.690643 138.343185,177.008026 103.288727,173.759659 
	C105.817520,168.204239 108.370544,162.595596 111.228348,156.317383 
	C105.722816,156.051819 101.591286,155.667496 97.472824,155.776566 
	C96.364761,155.805908 94.987602,157.131607 94.272141,158.216995 
	C92.628273,160.710831 91.411095,163.481323 89.850128,166.035248 
	C85.475838,173.192154 85.385460,173.330261 77.716858,170.614807 
	C55.088741,162.602188 39.806568,147.201767 31.677912,124.597603 
	C30.401398,121.047867 30.904396,118.491249 34.083996,116.459114 
	C47.771584,107.711136 62.263630,104.623749 77.840515,110.667641 
	C87.520805,114.423645 94.627182,124.242516 95.422554,134.739395 
	C86.542549,132.827179 79.368675,128.280884 75.307449,120.618942 
	C71.964813,114.312660 67.352730,113.296944 61.357155,113.806976 
	C56.437248,114.225510 55.736416,115.247978 57.686749,119.772163 
	C64.876007,136.449051 77.823326,145.884659 95.416069,149.100388 
	C106.162315,151.064682 116.631996,149.823196 126.671371,145.282913 
	C132.873062,142.478195 137.536591,138.883362 136.079041,130.995667 
	C135.672195,128.794052 136.017029,126.453529 136.017029,122.665031 
	C128.090729,128.633163 121.057350,133.827499 111.781517,135.244934 
	C109.554375,124.365318 105.177582,115.006714 97.448341,107.411537 
	C89.868500,99.963150 80.624939,95.730881 69.995117,93.632057 
	C72.520134,81.417709 79.036407,73.322739 90.804184,69.079865 
	C91.613403,69.047714 91.832146,68.935402 91.999886,68.723816 
	C92.432632,68.532166 92.865379,68.340508 93.809502,68.268311 
	C95.220917,68.063652 96.120964,67.739540 97.021004,67.415436 
	C97.464615,67.324181 97.908226,67.232925 98.956894,67.387802 
	C101.383232,67.388344 103.204521,67.142761 105.025803,66.897179 
	C106.740196,66.985161 108.454590,67.073135 110.831917,67.520187 
	C113.358040,68.227631 115.221237,68.575996 117.084427,68.924362 
z"/>
<path fill="#EE592B" opacity="1.000000" stroke="none" 
	d="
M43.018784,57.035587 
	C58.537403,37.455963 78.572121,28.484529 102.191963,28.719774 
	C99.719040,36.219208 97.449661,43.421013 94.890900,50.518490 
	C94.504654,51.589867 92.881851,52.581013 91.641495,52.924244 
	C72.072044,58.339546 59.921555,70.881760 54.938744,90.540268 
	C54.601215,91.871895 53.374496,93.513733 52.157345,93.999916 
	C44.248142,97.159157 36.227051,100.038284 27.940975,103.121346 
	C27.712238,86.820755 32.453308,71.223145 43.018784,57.035587 
z"/>
<path fill="#E4886E" opacity="1.000000" stroke="none" 
	d="
M104.722023,66.718506 
	C103.204521,67.142761 101.383232,67.388344 99.297577,67.390656 
	C100.828224,66.944862 102.623230,66.742348 104.722023,66.718506 
z"/>
<path fill="#E4886E" opacity="1.000000" stroke="none" 
	d="
M116.836807,68.667435 
	C115.221237,68.575996 113.358040,68.227631 111.242188,67.646851 
	C112.856071,67.746468 114.722626,68.078491 116.836807,68.667435 
z"/>
<path fill="#E4886E" opacity="1.000000" stroke="none" 
	d="
M96.709000,67.295013 
	C96.120964,67.739540 95.220917,68.063652 94.160080,68.208084 
	C94.798515,67.743805 95.597755,67.459198 96.709000,67.295013 
z"/>
<path fill="#E4886E" opacity="1.000000" stroke="none" 
	d="
M121.262970,70.363960 
	C120.644714,70.446449 119.872398,70.258888 118.984589,69.772102 
	C119.615707,69.679886 120.362305,69.886902 121.262970,70.363960 
z"/>
<path fill="#E4886E" opacity="1.000000" stroke="none" 
	d="
M136.269318,74.283722 
	C136.519470,74.534546 136.635254,75.128799 136.565308,75.890945 
	C136.298050,75.581596 136.216492,75.104378 136.269318,74.283722 
z"/>
<path fill="#E4886E" opacity="1.000000" stroke="none" 
	d="
M134.125946,61.217899 
	C134.391373,60.970215 134.662888,61.092724 134.957642,61.566521 
	C134.682114,61.870968 134.399155,61.761063 134.125946,61.217899 
z"/>
<path fill="#E4886E" opacity="1.000000" stroke="none" 
	d="
M91.816391,68.612762 
	C91.832146,68.935402 91.613403,69.047714 91.157928,69.021889 
	C91.086220,68.676483 91.306458,68.516045 91.816391,68.612762 
z"/>
<path fill="#E4886E" opacity="1.000000" stroke="none" 
	d="
M124.043221,71.542709 
	C123.857132,71.703339 123.539291,71.651871 123.094543,71.382263 
	C123.314888,71.034637 123.629501,71.090141 124.043221,71.542709 
z"/>
<path fill="#E4886E" opacity="1.000000" stroke="none" 
	d="
M125.329216,72.200005 
	C125.130142,72.369446 124.771736,72.339897 124.308853,72.038666 
	C124.526222,71.844994 124.848045,71.923004 125.329216,72.200005 
z"/>
<path fill="#E4886E" opacity="1.000000" stroke="none" 
	d="
M128.053040,73.620049 
	C127.859001,73.764687 127.537941,73.687111 127.093346,73.383049 
	C127.288544,73.236992 127.607277,73.317413 128.053040,73.620049 
z"/>
<path fill="#E4886E" opacity="1.000000" stroke="none" 
	d="
M133.377075,77.231216 
	C133.144821,77.358727 132.775116,77.267937 132.369247,76.866615 
	C132.635269,76.708366 132.937439,76.860641 133.377075,77.231216 
z"/>
<path fill="#E4886E" opacity="1.000000" stroke="none" 
	d="
M135.760315,78.120010 
	C135.746704,78.290146 135.459457,78.467010 135.066132,78.459900 
	C135.135590,78.226196 135.311157,78.176468 135.760315,78.120010 
z"/>
</svg>