<svg width="877" height="1024" viewBox="0 0 877 1024" fill="none" xmlns="http://www.w3.org/2000/svg">
<path d="M438.401 511.912V1024L876.803 767.956V256.048L438.401 511.912Z" fill="#B3ABBC"/>
<path d="M0 256.048V767.956L438.402 1024V511.912L0 256.048Z" fill="#685879"/>
<path d="M438.402 0L0 256.044L438.402 511.908L876.805 256.044L438.402 0Z" fill="#E5E3E8"/>
<path d="M163.595 351.497V672.494L438.417 833.082V511.906L163.595 351.497Z" fill="#352944"/>
<path d="M438.417 190.917L163.595 351.505L438.417 511.914L713.417 351.505L438.417 190.917Z" fill="#352944"/>
<path d="M438.401 511.906V833.082L713.4 672.494V351.497L438.401 511.906Z" fill="#352944"/>
<path d="M301.601 432.065V591.936L438.391 671.781V511.911L301.601 432.065Z" fill="#8FA300"/>
<path d="M438.391 352.217L301.601 432.062L438.391 511.908L575.181 432.062L438.391 352.217Z" fill="#F4FFA3"/>
<path d="M438.401 511.911V671.781L575.191 591.936V432.065L438.401 511.911Z" fill="#E1FF0B"/>
</svg>
