<svg version="1.1" id="Layer_1" xmlns="http://www.w3.org/2000/svg" xmlns:xlink="http://www.w3.org/1999/xlink" x="0px" y="0px"
	 width="100%" viewBox="0 0 400 400" enable-background="new 0 0 400 400" xml:space="preserve">
<path fill="#000000" opacity="1.000000" stroke="none" 
	d="
M136.999908,312.368713 
	C130.000366,312.365967 123.492645,312.163910 117.004265,312.431366 
	C112.866753,312.601929 111.534386,311.144287 111.576088,307.007996 
	C111.755844,289.177765 111.649658,271.344666 111.649651,253.512589 
	C111.649651,208.682434 111.684700,163.852188 111.589684,119.022240 
	C111.581741,115.271736 112.442139,112.406120 115.297279,109.780113 
	C120.443344,105.047043 125.287773,99.980164 130.156296,94.954010 
	C132.144424,92.901512 134.350143,91.956505 137.231598,91.959915 
	C187.394608,92.019211 237.557709,92.040497 287.720734,91.993347 
	C291.677917,91.989632 293.398529,93.282051 293.318420,97.514381 
	C293.104034,108.842804 293.168365,120.179024 293.305115,131.509933 
	C293.342712,134.623413 292.222382,136.870834 290.060638,138.971069 
	C284.922607,143.962860 279.790894,148.974411 274.922272,154.224319 
	C272.662872,156.660660 270.252045,157.486923 267.027771,157.471603 
	C245.529785,157.369400 224.031006,157.390121 202.532745,157.455750 
	C200.502380,157.461945 197.560120,156.460190 196.738113,159.000458 
	C195.785965,161.942871 195.610550,165.386475 196.921738,168.299881 
	C197.880264,170.429749 200.486374,169.624130 202.399673,169.628830 
	C223.564713,169.680878 244.729919,169.668137 265.895081,169.676056 
	C273.328308,169.678848 273.337128,169.682770 273.341553,177.019150 
	C273.348175,188.018372 273.271240,199.018326 273.386841,210.016312 
	C273.417114,212.895050 272.609283,215.094177 270.512848,217.099365 
	C264.495026,222.855301 259.495178,230.444305 252.433640,234.125244 
	C245.297577,237.845047 236.094833,235.062317 227.802673,235.259460 
	C218.974945,235.469330 210.133347,235.484940 201.307739,235.235016 
	C196.694885,235.104355 196.306152,237.519501 196.236710,241.169876 
	C196.163391,245.023880 197.021454,246.910095 201.430161,246.888580 
	C229.594101,246.751129 257.759125,246.832779 285.923767,246.852051 
	C293.210083,246.857040 293.230957,246.872925 293.243988,253.997528 
	C293.263489,264.663391 293.165344,275.330444 293.302155,285.994568 
	C293.343597,289.224823 292.454163,291.708282 290.081116,293.962921 
	C285.008942,298.782043 279.990631,303.677216 275.248535,308.816467 
	C272.756989,311.516724 270.102631,312.438782 266.489288,312.430115 
	C223.493027,312.327087 180.496429,312.366333 136.999908,312.368713 
M255.716370,99.438957 
	C217.065247,100.197372 178.413330,100.239662 139.761078,99.541679 
	C138.399399,99.517097 136.885696,99.367905 135.943954,100.335068 
	C131.602356,104.793907 127.390511,109.379105 123.079910,113.974686 
	C124.947189,115.229919 127.003098,114.647987 128.915710,114.650414 
	C168.910355,114.701126 208.905090,114.695213 248.899796,114.701324 
	C254.399063,114.702164 259.903076,114.847443 265.395935,114.661400 
	C268.971161,114.540306 270.576050,115.707428 270.409912,119.501617 
	C270.184174,124.657440 270.255188,129.834229 270.406891,134.995911 
	C270.515564,138.693848 269.653290,142.504333 271.248779,146.506760 
	C275.712524,143.456024 278.710602,139.410324 282.386871,136.112305 
	C284.797882,133.949371 285.812500,131.499222 285.728729,128.211578 
	C285.529266,120.384209 285.444580,112.540977 285.729492,104.719307 
	C285.886475,100.410187 284.158905,99.252228 280.170044,99.362198 
	C272.343567,99.577965 264.507172,99.433449 255.716370,99.438957 
M256.500000,254.962143 
	C237.510574,254.960571 218.521149,254.953888 199.531723,254.959213 
	C186.767059,254.962799 188.854355,255.265930 188.747971,244.281830 
	C188.654037,234.583633 188.720825,234.740341 179.117966,234.880341 
	C175.140884,234.938324 173.868820,236.591141 173.924545,240.309250 
	C174.039337,247.969452 173.918625,255.633041 173.914688,263.295227 
	C173.911484,269.513062 174.061539,269.677094 180.377426,269.680634 
	C207.362411,269.695801 234.347427,269.678406 261.332397,269.703583 
	C271.396057,269.712982 270.303040,268.832062 270.360260,278.911346 
	C270.403137,286.465485 270.368713,294.020050 270.368713,301.574402 
	C270.849518,301.776459 271.330322,301.978546 271.811127,302.180603 
	C275.915009,297.840668 280.010712,293.492950 284.127747,289.165527 
	C285.371338,287.858398 285.670380,286.285156 285.666138,284.565155 
	C285.645538,276.236572 285.552948,267.906342 285.687347,259.579956 
	C285.742798,256.143677 284.412445,254.791489 280.986053,254.855530 
	C273.159454,255.001862 265.328918,254.939285 256.500000,254.962143 
M201.513992,177.285248 
	C200.847641,177.285065 200.181290,177.287689 199.514954,177.284286 
	C187.246445,177.221695 188.968338,178.388824 188.753784,166.659424 
	C188.570343,156.631821 190.566940,157.390411 178.891678,157.222763 
	C175.256607,157.170578 173.785767,158.454727 173.862442,162.146439 
	C174.021545,169.805527 173.904663,177.470261 173.909073,185.132675 
	C173.912933,191.823013 174.081314,192.012024 181.011520,192.014557 
	C202.000320,192.022232 222.989136,191.990051 243.977921,192.003998 
	C251.163315,192.008759 251.282455,192.154602 251.295517,199.213928 
	C251.310471,207.301453 251.298981,215.389023 251.298981,224.266541 
	C255.984360,221.299698 258.531555,217.518341 261.911469,214.682465 
	C264.945465,212.136810 266.199768,209.105591 266.053192,205.070496 
	C265.787354,197.750870 265.757507,190.404816 266.068878,183.088501 
	C266.268219,178.404434 264.479767,177.153687 259.978851,177.202652 
	C240.824692,177.410965 221.666931,177.287933 201.513992,177.285248 
z"/>
</svg>