<svg width="64" height="90" viewBox="0 0 64 90" fill="none" xmlns="http://www.w3.org/2000/svg">
<mask id="mask0_1_10" style="mask-type:luminance" maskUnits="userSpaceOnUse" x="0" y="0" width="64" height="90">
<path d="M0 0H63.5V90H0V0Z" fill="white"/>
</mask>
<g mask="url(#mask0_1_10)">
<path d="M19.271 73.138L43.957 53.746C49.446 49.436 49.392 41.165 43.852 36.919L19.271 18.09V1.05099L52.508 27.144C64.32 36.418 64.37 54.17 52.605 63.51L19.271 89.965V73.138Z" fill="#0F0F0F"/>
<path d="M28.437 41.952L15.232 30.966L2.024 41.952C1.50097 42.3855 1.07998 42.929 0.791023 43.5439C0.502065 44.1587 0.352249 44.8297 0.352249 45.509C0.352249 46.1883 0.502065 46.8593 0.791023 47.4741C1.07998 48.0889 1.50097 48.6325 2.024 49.066L15.229 60.051L28.433 49.066C28.956 48.6325 29.377 48.0889 29.666 47.4741C29.9549 46.8593 30.1048 46.1883 30.1048 45.509C30.1048 44.8297 29.9549 44.1587 29.666 43.5439C29.377 42.929 28.956 42.3855 28.433 41.952H28.437Z" fill="#0F0F0F"/>
</g>
</svg>
