<svg width="180" height="180" viewBox="0 0 180 180" fill="none" xmlns="http://www.w3.org/2000/svg">
<path fill-rule="evenodd" clip-rule="evenodd" d="M180 102.857L180 77.1429L167.143 77.1429C160.042 77.1429 154.286 71.3865 154.286 64.2857L154.286 51.4286L141.429 51.4286C134.328 51.4286 128.571 45.6722 128.571 38.5714L128.571 25.7143L115.714 25.7143C108.613 25.7143 102.857 19.9579 102.857 12.8571L102.857 -3.37202e-06L77.1429 -4.49603e-06L77.1429 25.7143L90 25.7143C97.1008 25.7143 102.857 31.4706 102.857 38.5714L102.857 51.4286L115.714 51.4286C122.815 51.4286 128.571 57.1849 128.571 64.2857C128.571 71.3865 122.815 77.1429 115.714 77.1429L2.35002e-06 77.1428L1.22602e-06 102.857L115.714 102.857C122.815 102.857 128.571 108.613 128.571 115.714C128.571 122.815 122.815 128.571 115.714 128.571L102.857 128.571L102.857 141.429C102.857 148.529 97.1008 154.286 90 154.286L77.1429 154.286L77.1429 180L102.857 180L102.857 167.143C102.857 160.042 108.613 154.286 115.714 154.286L128.571 154.286L128.571 141.429C128.571 134.328 134.328 128.571 141.429 128.571L154.286 128.571L154.286 115.714C154.286 108.613 160.042 102.857 167.143 102.857L180 102.857ZM128.571 90C128.571 97.1008 134.328 102.857 141.429 102.857C148.529 102.857 154.286 97.1008 154.286 90C154.286 82.8992 148.529 77.1429 141.429 77.1429C134.328 77.1429 128.571 82.8992 128.571 90Z" fill="#FF5100" style="fill:#FF5100;fill:color(display-p3 1.0000 0.3176 0.0000);fill-opacity:1;"/>
</svg>
