<svg version="1.1" id="Layer_1" xmlns="http://www.w3.org/2000/svg" xmlns:xlink="http://www.w3.org/1999/xlink" x="0px" y="0px"
	 width="100%" viewBox="0 0 512 512" enable-background="new 0 0 512 512" xml:space="preserve">
<path fill="#22533E" opacity="1.000000" stroke="none" 
	d="
M338.000000,513.000000 
	C225.360703,513.000000 113.221397,513.000000 1.041047,513.000000 
	C1.041047,342.402344 1.041047,171.804672 1.041047,1.103501 
	C171.555969,1.103501 342.112030,1.103501 512.834045,1.103501 
	C512.834045,171.666534 512.834045,342.333252 512.834045,513.000000 
	C454.804657,513.000000 396.652313,513.000000 338.000000,513.000000 
M175.114487,271.742737 
	C174.863297,271.612335 174.612091,271.481964 174.360901,271.351562 
	C174.620316,270.984467 174.799667,270.423096 175.150711,270.278473 
	C186.806717,265.476135 196.357162,257.828033 204.475174,248.345230 
	C222.846024,226.885956 232.438110,201.411392 238.046127,174.165802 
	C239.129883,168.900497 239.940369,163.578979 240.876923,158.283386 
	C241.764465,159.520859 241.833038,160.652405 241.983215,161.773010 
	C245.447067,187.617935 252.275681,212.377411 267.279572,234.090607 
	C283.833710,258.047302 306.323456,271.227844 336.117493,267.868317 
	C362.454437,264.898590 383.145355,252.656418 394.161407,227.390503 
	C401.719971,210.054459 402.945251,191.915543 398.896149,173.553207 
	C391.204346,138.671432 361.874878,112.418610 324.428894,112.800644 
	C255.937592,113.499413 187.434097,112.999527 118.935684,112.999527 
	C117.013741,112.999527 115.091805,112.999519 113.363716,112.999519 
	C113.363716,209.409302 113.363716,305.139252 113.363716,401.000305 
	C123.221176,401.000305 132.715561,400.925629 142.208344,401.016968 
	C158.399292,401.172729 173.203018,396.586731 186.201111,387.129547 
	C225.302841,358.679718 236.723053,317.776642 237.482666,271.748199 
	C216.767517,271.748199 196.292572,271.748199 175.114487,271.742737 
M383.416138,309.107239 
	C363.472748,284.466736 338.153015,271.128967 305.951599,271.691620 
	C287.626587,272.011810 269.291382,271.749512 250.960785,271.749512 
	C249.231949,271.749512 247.503113,271.749481 245.533783,271.749481 
	C246.049606,279.093750 246.550751,285.568848 246.951462,292.050171 
	C248.573624,318.288177 256.602448,342.316772 272.462830,363.364746 
	C291.101746,388.100098 315.159363,402.300476 347.178070,401.107178 
	C363.486328,400.499329 379.835876,401.000702 396.166779,401.000702 
	C397.744232,401.000702 399.321686,401.000732 401.000732,401.000732 
	C401.000732,387.921112 400.758514,375.586761 401.055847,363.265472 
	C401.536499,343.350128 395.685272,325.581421 383.416138,309.107239 
z"/>
<path fill="#FFFFFF" opacity="1.000000" stroke="none" 
	d="
M175.466049,271.745483 
	C196.292572,271.748199 216.767517,271.748199 237.482666,271.748199 
	C236.723053,317.776642 225.302841,358.679718 186.201111,387.129547 
	C173.203018,396.586731 158.399292,401.172729 142.208344,401.016968 
	C132.715561,400.925629 123.221176,401.000305 113.363716,401.000305 
	C113.363716,305.139252 113.363716,209.409302 113.363716,112.999519 
	C115.091805,112.999519 117.013741,112.999527 118.935684,112.999527 
	C187.434097,112.999527 255.937592,113.499413 324.428894,112.800644 
	C361.874878,112.418610 391.204346,138.671432 398.896149,173.553207 
	C402.945251,191.915543 401.719971,210.054459 394.161407,227.390503 
	C383.145355,252.656418 362.454437,264.898590 336.117493,267.868317 
	C306.323456,271.227844 283.833710,258.047302 267.279572,234.090607 
	C252.275681,212.377411 245.447067,187.617935 241.983215,161.773010 
	C241.833038,160.652405 241.764465,159.520859 240.876923,158.283386 
	C239.940369,163.578979 239.129883,168.900497 238.046127,174.165802 
	C232.438110,201.411392 222.846024,226.885956 204.475174,248.345230 
	C196.357162,257.828033 186.806717,265.476135 175.150711,270.278473 
	C174.799667,270.423096 174.620316,270.984467 174.360901,271.351562 
	C174.612091,271.481964 174.863297,271.612335 175.466049,271.745483 
z"/>
<path fill="#FEFFFF" opacity="1.000000" stroke="none" 
	d="
M383.640045,309.388672 
	C395.685272,325.581421 401.536499,343.350128 401.055847,363.265472 
	C400.758514,375.586761 401.000732,387.921112 401.000732,401.000732 
	C399.321686,401.000732 397.744232,401.000702 396.166779,401.000702 
	C379.835876,401.000702 363.486328,400.499329 347.178070,401.107178 
	C315.159363,402.300476 291.101746,388.100098 272.462830,363.364746 
	C256.602448,342.316772 248.573624,318.288177 246.951462,292.050171 
	C246.550751,285.568848 246.049606,279.093750 245.533783,271.749481 
	C247.503113,271.749481 249.231949,271.749512 250.960785,271.749512 
	C269.291382,271.749512 287.626587,272.011810 305.951599,271.691620 
	C338.153015,271.128967 363.472748,284.466736 383.640045,309.388672 
z"/>
</svg>