<svg width="300" height="84" viewBox="0 0 300 84" fill="none" xmlns="http://www.w3.org/2000/svg">
<g filter="url(#filter0_d_4002_1021)">
<path d="M41.9852 73.9704C59.6501 73.9704 73.9704 59.6501 73.9704 41.9852C73.9704 24.3203 59.6501 10 41.9852 10C24.3203 10 10 24.3203 10 41.9852C10 59.6501 24.3203 73.9704 41.9852 73.9704Z" fill="url(#paint0_linear_4002_1021)"/>
<mask id="mask0_4002_1021" style="mask-type:alpha" maskUnits="userSpaceOnUse" x="10" y="10" width="64" height="64">
<path d="M41.9852 73.9704C59.6501 73.9704 73.9704 59.6501 73.9704 41.9852C73.9704 24.3203 59.6501 10 41.9852 10C24.3203 10 10 24.3203 10 41.9852C10 59.6501 24.3203 73.9704 41.9852 73.9704Z" fill="#D9D9D9"/>
</mask>
<g mask="url(#mask0_4002_1021)">
<path d="M47.9646 36.9105C29.1048 25.9428 10.9774 32.464 4.27119 37.0339V87.0549H93.139V35.3048C85.9393 40.2864 66.8244 47.878 47.9646 36.9105Z" fill="url(#paint1_linear_4002_1021)"/>
<path d="M42.7756 41.3448C62.7924 29.7383 82.032 36.6395 89.1495 41.4754V94.4103H-5.17035V39.6455C2.47132 44.9172 22.7588 52.9512 42.7756 41.3448Z" fill="url(#paint2_linear_4002_1021)"/>
<path d="M68.6199 62.1443C45.749 48.9053 23.7662 56.7773 15.6337 62.2934V122.675H123.402V60.2063C114.671 66.2194 91.4907 75.3836 68.6199 62.1443Z" fill="url(#paint3_linear_4002_1021)"/>
<path fill-rule="evenodd" clip-rule="evenodd" d="M41.9852 69.9003C57.4025 69.9003 69.9003 57.4024 69.9003 41.9852C69.9003 26.5679 57.4025 14.07 41.9852 14.07C26.5679 14.07 14.07 26.5679 14.07 41.9852C14.07 57.4024 26.5679 69.9003 41.9852 69.9003ZM41.9852 74.406C59.8904 74.406 74.4058 59.8906 74.4058 41.9852C74.4058 24.0799 59.8904 9.56458 41.9852 9.56458C24.0799 9.56458 9.56458 24.0799 9.56458 41.9852C9.56458 59.8906 24.0799 74.406 41.9852 74.406Z" fill="white"/>
</g>
</g>
<path d="M104.182 59.3172V31.8333H94.2475V24.3831H122.946V31.8333H113.012V59.3172H104.182Z" fill="#FFFFFF"/>
<path d="M140.058 59.3172H131.227V24.3831H147.895C152.273 24.3831 155.456 25.3764 157.443 27.3633C159.466 29.313 160.478 32.2013 160.478 36.0276C160.478 38.8977 159.761 41.3626 158.326 43.4231C156.891 45.4465 154.996 46.7159 152.641 47.2311L152.586 47.3965C153.506 47.9853 154.518 48.9601 155.622 50.3217C156.725 51.6829 157.811 53.1729 158.878 54.7917C159.982 56.3738 160.957 57.8641 161.803 59.2621V59.3172H151.537L145.577 50.4871C145.062 49.7143 144.639 49.1626 144.307 48.8314C144.013 48.5002 143.645 48.298 143.204 48.2244C142.799 48.1508 142.136 48.114 141.217 48.114H140.058V59.3172ZM146.46 31.5575H140.058V40.9396H146.46C148.3 40.9396 149.569 40.5716 150.268 39.8356C151.004 39.0999 151.372 37.9041 151.372 36.2484C151.372 34.5927 151.004 33.3972 150.268 32.6612C149.569 31.9255 148.3 31.5575 146.46 31.5575Z" fill="#FFFFFF"/>
<path d="M180.045 59.3172H171.215V24.3831H180.045V59.3172Z" fill="#FFFFFF"/>
<path d="M198.273 59.3172V31.8333H188.339V24.3831H217.038V31.8333H207.104V59.3172H198.273Z" fill="#FFFFFF"/>
<path d="M224.215 41.8225C224.215 37.3706 224.712 33.8385 225.705 31.2263C226.735 28.6141 228.483 26.7377 230.948 25.5972C233.45 24.4564 236.927 23.8861 241.379 23.8861C244.727 23.8861 247.505 24.1991 249.713 24.8244C251.92 25.45 253.668 26.4618 254.956 27.8599C256.244 29.258 257.145 31.1159 257.66 33.434C258.212 35.7149 258.488 38.5111 258.488 41.8225C258.488 45.1706 258.212 48.0036 257.66 50.3217C257.145 52.6026 256.244 54.4423 254.956 55.8404C253.668 57.2385 251.92 58.2503 249.713 58.8756C247.505 59.5012 244.727 59.8138 241.379 59.8138C238.031 59.8138 235.253 59.5012 233.045 58.8756C230.838 58.2503 229.09 57.2385 227.802 55.8404C226.514 54.4423 225.594 52.6026 225.042 50.3217C224.491 48.0036 224.215 45.1706 224.215 41.8225ZM241.379 52.0874C243.734 52.0874 245.5 51.7933 246.677 51.2045C247.855 50.6157 248.646 49.5857 249.05 48.114C249.455 46.6055 249.657 44.5082 249.657 41.8225C249.657 39.1735 249.455 37.113 249.05 35.6413C248.646 34.1697 247.855 33.1396 246.677 32.5508C245.5 31.9255 243.734 31.6125 241.379 31.6125C239.061 31.6125 237.295 31.9255 236.081 32.5508C234.903 33.1396 234.094 34.1697 233.652 35.6413C233.248 37.113 233.045 39.1735 233.045 41.8225C233.045 44.5082 233.248 46.6055 233.652 48.114C234.094 49.5857 234.903 50.6157 236.081 51.2045C237.295 51.7933 239.061 52.0874 241.379 52.0874Z" fill="#FFFFFF"/>
<path d="M291.06 24.3831H299.89V59.3172H291.115L281.181 44.5268C280.408 43.3495 279.764 42.3559 279.249 41.5466C278.734 40.737 278.256 39.9277 277.814 39.1181C277.373 38.3089 276.876 37.3524 276.324 36.2484L276.159 36.4692C276.673 38.2353 276.986 39.8909 277.097 41.4362C277.207 42.9447 277.262 44.4164 277.262 45.8513V59.3172H268.432V24.3831H277.207L287.141 39.1735C287.914 40.314 288.558 41.3073 289.073 42.1537C289.588 42.9629 290.066 43.7725 290.508 44.5818C290.95 45.3914 291.446 46.3479 291.998 47.4516L292.164 47.2311C291.796 45.6858 291.52 44.1956 291.336 42.7607C291.152 41.289 291.06 39.8356 291.06 38.4007V24.3831Z" fill="#FFFFFF"/>
<defs>
<filter id="filter0_d_4002_1021" x="-0.0296021" y="-0.0293884" width="84" height="84" filterUnits="userSpaceOnUse" color-interpolation-filters="sRGB">
<feFlood flood-opacity="0" result="BackgroundImageFix"/>
<feColorMatrix in="SourceAlpha" type="matrix" values="0 0 0 0 0 0 0 0 0 0 0 0 0 0 0 0 0 0 127 0" result="hardAlpha"/>
<feOffset/>
<feGaussianBlur stdDeviation="5"/>
<feComposite in2="hardAlpha" operator="out"/>
<feColorMatrix type="matrix" values="0 0 0 0 0.0901961 0 0 0 0 0.0901961 0 0 0 0 0.0901961 0 0 0 0.2 0"/>
<feBlend mode="normal" in2="BackgroundImageFix" result="effect1_dropShadow_4002_1021"/>
<feBlend mode="normal" in="SourceGraphic" in2="effect1_dropShadow_4002_1021" result="shape"/>
</filter>
<linearGradient id="paint0_linear_4002_1021" x1="33.8306" y1="19.5604" x2="41.9852" y2="73.9704" gradientUnits="userSpaceOnUse">
<stop stop-color="#DFDCF2"/>
<stop offset="0.286458" stop-color="white"/>
</linearGradient>
<linearGradient id="paint1_linear_4002_1021" x1="48.7052" y1="30.8992" x2="48.7052" y2="87.0549" gradientUnits="userSpaceOnUse">
<stop stop-color="#3311FF"/>
<stop offset="1"/>
</linearGradient>
<linearGradient id="paint2_linear_4002_1021" x1="41.9896" y1="34.9833" x2="41.9896" y2="94.4103" gradientUnits="userSpaceOnUse">
<stop stop-color="#A12CFF"/>
<stop offset="1"/>
</linearGradient>
<linearGradient id="paint3_linear_4002_1021" x1="69.518" y1="54.8882" x2="69.518" y2="122.675" gradientUnits="userSpaceOnUse">
<stop stop-color="#F606FF"/>
<stop offset="1"/>
</linearGradient>
</defs>
</svg>
