<svg version="1.1" id="Layer_1" xmlns="http://www.w3.org/2000/svg" xmlns:xlink="http://www.w3.org/1999/xlink" x="0px" y="0px"
	 width="100%" viewBox="0 0 400 400" enable-background="new 0 0 400 400" xml:space="preserve">
<path fill="#000000" opacity="1.000000" stroke="none" 
	d="
M192.769730,293.540833 
	C195.418304,292.629456 195.927078,290.889465 195.922424,288.683258 
	C195.886246,271.519928 195.887024,254.356461 195.922638,237.193130 
	C195.927414,234.888092 195.211182,232.880493 192.749115,233.043671 
	C187.505722,233.391159 183.942352,224.359985 177.870346,230.361557 
	C164.720474,243.358856 151.698227,256.485718 138.496140,269.429413 
	C135.963943,271.912018 135.174911,274.105255 136.100998,277.741669 
	C138.633286,287.684967 132.730774,296.682343 122.889763,298.746216 
	C114.127220,300.583923 105.046326,294.701965 103.157433,285.965027 
	C101.045547,276.196655 106.549652,267.526245 116.383606,265.149261 
	C118.859406,264.550842 121.414856,264.353027 123.755585,265.382477 
	C127.153900,266.877045 129.480942,265.992310 132.053848,263.365265 
	C144.877548,250.271713 157.849548,237.321426 170.906342,224.459808 
	C173.457916,221.946381 174.342514,219.813431 171.964615,216.774628 
	C171.067429,215.628098 170.639633,214.095901 170.080490,212.706253 
	C167.074875,205.236099 167.083893,205.220825 158.841965,205.214691 
	C144.178040,205.203766 129.513351,205.288818 114.850731,205.148804 
	C111.295166,205.114853 109.192650,205.925797 107.696732,209.610840 
	C103.158409,220.790405 91.522316,226.582001 80.480965,223.697800 
	C69.091309,220.722610 61.769302,210.298203 62.814247,198.545517 
	C63.842976,186.975159 72.949249,178.199188 84.951912,177.210815 
	C94.050591,176.461563 103.855408,182.473068 107.477997,191.571991 
	C108.829002,194.965378 110.691223,196.042847 114.163040,196.012070 
	C130.325516,195.868744 146.490662,195.831482 162.652771,195.981110 
	C166.463867,196.016403 168.694977,194.806046 169.310776,190.988037 
	C169.362839,190.665283 169.465485,190.309555 169.659042,190.056732 
	C175.538300,182.377289 171.539307,177.365631 165.648697,171.876648 
	C154.683945,161.659470 144.202133,150.908081 133.820206,140.090286 
	C130.369354,136.494553 127.261986,135.070724 122.134956,136.334824 
	C114.206665,138.289627 105.941978,132.785950 103.484970,124.909599 
	C100.853081,116.472656 104.836624,107.522202 112.767281,104.053551 
	C120.448212,100.694138 130.184097,103.647575 134.233566,110.722878 
	C136.623474,114.898582 137.765640,119.450035 136.110809,124.145210 
	C135.012619,127.261055 135.681396,129.349380 138.018692,131.648773 
	C151.322098,144.736420 164.527496,157.925217 177.633026,171.211029 
	C179.932281,173.541901 181.925552,173.939163 184.584183,172.179779 
	C185.685242,171.451141 186.949356,170.951324 188.174850,170.431183 
	C195.888062,167.157349 195.908707,167.165161 195.920471,158.898560 
	C195.940399,144.901215 195.734467,130.899307 196.048355,116.908852 
	C196.162048,111.842094 195.039474,108.863586 189.963730,106.579079 
	C180.019806,102.103462 175.447769,90.965569 178.076187,80.147316 
	C180.541794,69.999130 189.642715,62.894691 200.393799,62.725555 
	C211.375153,62.552795 220.646957,69.396614 223.509964,79.788368 
	C226.662323,91.230324 221.017838,103.112633 209.811523,107.612083 
	C206.230499,109.049911 205.125046,110.943420 205.162949,114.625389 
	C205.329315,130.787354 205.314728,146.952515 205.185440,163.115082 
	C205.157333,166.628815 205.968582,168.900436 209.821487,169.339081 
	C210.945160,169.466995 212.028137,170.068954 213.098923,170.525940 
	C221.172485,173.971619 221.196899,174.004227 227.339706,167.893707 
	C239.388657,155.908142 251.349747,143.833481 263.480621,131.931686 
	C265.892395,129.565445 266.699799,127.464653 265.679840,124.070457 
	C263.457733,116.675850 266.728210,108.765862 273.008423,105.064262 
	C279.426147,101.281609 288.598633,102.316566 293.944244,107.426514 
	C299.232452,112.481590 300.474457,120.934311 296.927643,127.730186 
	C293.436890,134.418625 286.091309,138.181015 278.451691,136.147858 
	C273.979309,134.957581 271.388855,136.348114 268.481567,139.316406 
	C255.658798,152.408157 242.696320,165.363724 229.715164,178.299057 
	C227.734741,180.272491 227.199387,182.025192 229.035538,184.342712 
	C229.850693,185.371536 230.744247,186.606842 230.906937,187.840118 
	C231.911392,195.455063 236.695953,196.283432 243.309906,196.070709 
	C257.791962,195.604904 272.301239,195.827362 286.796021,196.021774 
	C290.636871,196.073257 292.726440,194.943787 294.354980,191.261185 
	C298.995758,180.767059 309.541016,175.608261 320.570984,177.868164 
	C330.964600,179.997696 338.600311,189.382263 339.015045,200.536530 
	C339.398254,210.844864 332.168854,220.373352 321.614105,223.471191 
	C310.526276,226.725479 298.258087,220.783524 293.953461,209.587326 
	C292.617920,206.113647 290.813843,205.122925 287.365784,205.150711 
	C271.203186,205.280884 255.038528,205.284927 238.875809,205.167862 
	C235.455933,205.143082 233.110382,205.754715 232.521454,209.640427 
	C232.253464,211.408707 231.619186,213.329849 230.557037,214.731537 
	C226.906754,219.548721 228.884766,222.662064 232.716965,226.364044 
	C245.298492,238.518051 257.571228,250.994583 269.827759,263.479614 
	C272.200287,265.896362 274.285278,266.709351 277.686493,265.621765 
	C284.859467,263.328064 292.643921,266.692230 296.549286,273.230438 
	C300.595642,280.004700 299.594299,288.314484 294.053955,293.938660 
	C288.679291,299.394653 280.463074,300.610168 273.807953,296.933868 
	C266.949646,293.145325 263.311249,285.280060 265.566895,277.877716 
	C266.652924,274.313629 265.860260,272.118958 263.290314,269.602203 
	C250.076309,256.661804 236.991318,243.587875 223.997467,230.426132 
	C221.758377,228.158096 219.967514,227.434326 217.217667,229.410767 
	C215.623398,230.556641 213.704422,231.673523 211.818680,231.912399 
	C206.001663,232.649292 205.028015,236.012680 205.135513,241.249634 
	C205.450043,256.573639 205.316376,271.908813 205.193222,287.238281 
	C205.165985,290.628754 205.989120,292.537811 209.508011,293.913696 
	C220.586777,298.245575 226.405136,309.842590 223.665039,321.065033 
	C220.963837,332.128235 210.263687,339.983643 199.202744,339.023804 
	C187.116745,337.975037 178.000854,328.545654 177.252777,316.318970 
	C176.682083,306.991608 182.390030,298.473877 192.769730,293.540833 
z"/>
</svg>