<svg preserveAspectRatio="none" width="100%" height="100%" overflow="visible" style="display: block;" viewBox="0 0 312.635 443" fill="none" xmlns="http://www.w3.org/2000/svg">
<g id="Frame 27">
<path id="Rectangle 8" d="M312.202 180.75V442.25L0.433013 262.25V0.75L312.202 180.75Z" stroke="var(--stroke-0, #1C1C1D)" stroke-opacity="0.2"/>
<path id="Vector" d="M213.017 269.925C213.378 270.133 213.73 270.459 214.032 270.863C214.296 271.216 214.512 271.614 214.658 272.021L214.717 272.196C214.842 272.605 214.892 273 214.861 273.344L214.843 273.488C214.782 273.865 214.618 274.152 214.371 274.315L194.677 287.378C194.29 287.635 193.82 287.747 193.299 287.708C192.778 287.669 192.217 287.48 191.648 287.151L98.286 233.249C97.9253 233.04 97.5722 232.714 97.2703 232.311C96.9684 231.907 96.731 231.444 96.5869 230.978C96.4429 230.511 96.3988 230.062 96.4601 229.686C96.5214 229.309 96.6855 229.022 96.932 228.858L116.641 215.804C117.027 215.548 117.495 215.435 118.014 215.474C118.469 215.507 118.955 215.655 119.449 215.91L119.661 216.026L213.017 269.925ZM98.286 157.252L191.648 211.155C192.217 211.483 192.778 211.943 193.299 212.505C193.82 213.068 194.29 213.721 194.677 214.425L214.371 250.229C214.587 250.621 214.74 251.035 214.815 251.432L214.843 251.602C214.905 252.049 214.86 252.447 214.717 252.747C214.572 253.047 214.334 253.236 214.032 253.291C213.73 253.345 213.378 253.264 213.017 253.056L119.661 199.157C119.165 198.869 118.674 198.482 118.211 198.013L118.014 197.808L117.822 197.592C117.38 197.082 116.979 196.506 116.641 195.892V195.891L96.932 160.079L96.9311 160.079C96.6849 159.631 96.5214 159.154 96.4601 158.707C96.3988 158.26 96.443 157.862 96.5869 157.562C96.731 157.261 96.9684 157.071 97.2703 157.017C97.5722 156.962 97.9253 157.044 98.286 157.252ZM213.017 177.06C213.377 177.268 213.73 177.593 214.032 177.997C214.334 178.4 214.572 178.864 214.717 179.331C214.842 179.739 214.892 180.134 214.861 180.478L214.843 180.623C214.782 181 214.618 181.287 214.371 181.45L194.677 194.513C194.29 194.77 193.82 194.882 193.299 194.843C192.778 194.804 192.217 194.615 191.648 194.286L98.2877 140.384C97.9271 140.175 97.5741 139.848 97.2728 139.445C96.9716 139.042 96.7347 138.579 96.5912 138.113C96.4477 137.647 96.4038 137.198 96.4652 136.822C96.5266 136.446 96.6909 136.159 96.9371 135.996L116.641 122.938C116.979 122.714 117.38 122.601 117.822 122.601L118.014 122.608C118.469 122.642 118.955 122.79 119.449 123.045L119.661 123.161L213.017 177.06Z" stroke="var(--stroke-0, #1C1C1D)" stroke-opacity="0.2"/>
</g>
</svg>
