<svg preserveAspectRatio="none" width="100%" height="100%" overflow="visible" style="display: block;" viewBox="0 0 20.0899 18" fill="none" xmlns="http://www.w3.org/2000/svg">
<g id="Group">
<path id="Vector" d="M19.9864 14.1917L16.67 17.7549C16.5979 17.8323 16.5107 17.894 16.4137 17.9361C16.3168 17.9783 16.2123 18.0001 16.1066 18H0.385015C0.309999 18 0.236618 17.978 0.173887 17.9368C0.111157 17.8956 0.0618092 17.8369 0.0319083 17.768C0.00200745 17.6991 -0.00714446 17.6229 0.00557707 17.5489C0.0182986 17.4748 0.0523395 17.4061 0.103517 17.3511L3.42245 13.788C3.49435 13.7108 3.58132 13.6492 3.67793 13.6071C3.77453 13.5649 3.87878 13.543 3.98418 13.5429H19.7049C19.7799 13.5429 19.8533 13.5648 19.916 13.606C19.9787 13.6472 20.0281 13.7059 20.058 13.7748C20.0879 13.8437 20.097 13.9199 20.0843 13.994C20.0716 14.068 20.0375 14.1368 19.9864 14.1917ZM16.67 7.01658C16.5979 6.93917 16.5107 6.87745 16.4137 6.83527C16.3168 6.79311 16.2123 6.77138 16.1066 6.77141H0.385015C0.309999 6.77141 0.236618 6.79339 0.173887 6.83459C0.111157 6.8758 0.0618092 6.93448 0.0319083 7.0034C0.00200745 7.07232 -0.00714446 7.14848 0.00557707 7.22254C0.0182986 7.2966 0.0523395 7.36535 0.103517 7.42028L3.42245 10.9834C3.49435 11.0606 3.58132 11.1222 3.67793 11.1644C3.77453 11.2065 3.87878 11.2284 3.98418 11.2286H19.7049C19.7799 11.2286 19.8533 11.2066 19.916 11.1654C19.9787 11.1242 20.0281 11.0655 20.058 10.9966C20.0879 10.9277 20.097 10.8515 20.0843 10.7775C20.0716 10.7034 20.0375 10.6346 19.9864 10.5797L16.67 7.01658ZM0.385015 4.45714H16.1066C16.2123 4.45721 16.3168 4.43547 16.4137 4.39329C16.5107 4.3511 16.5979 4.28941 16.67 4.212L19.9864 0.648856C20.0375 0.59391 20.0716 0.525186 20.0843 0.451126C20.097 0.377065 20.0879 0.300891 20.058 0.231972C20.0281 0.163049 19.9787 0.104378 19.916 0.0631664C19.8533 0.021958 19.7799 3.38023e-06 19.7049 0H3.98418C3.87878 0.000179152 3.77453 0.022029 3.67793 0.064194C3.58132 0.106362 3.49435 0.16795 3.42245 0.245141L0.104373 3.80827C0.0532444 3.86316 0.0192186 3.93182 0.00646824 4.00581C-0.00628216 4.0798 0.00279714 4.15589 0.0325927 4.22478C0.0623882 4.29367 0.111604 4.35235 0.174206 4.39362C0.236807 4.4349 0.310072 4.45697 0.385015 4.45714Z" fill="var(--fill-0, black)"/>
</g>
</svg>
